{"title":"Naruto Shippuden the Movie The Will Of Fire (1920x1080)(5.1) [Ph","uid":8737874,"size":3677037822,"categoryP":"video","categoryS":"hd___tv_shows","magnet":"?xt=urn:btih:174b0ead71b7847c57a7939687c72dd9227d4a6b&amp;dn=Naruto+Shippuden+the+Movie+The+Will+Of+Fire+%281920x1080%29%285.1%29+%5BPh&amp;tr=udp%3A%2F%2Ftracker.openbittorrent.com%3A80&amp;tr=udp%3A%2F%2Fopen.demonii.com%3A1337&amp;tr=udp%3A%2F%2Ftracker.coppersurfer.tk%3A6969&amp;tr=udp%3A%2F%2Fexodus.desync.com%3A6969","seeders":2,"leechers":0,"uploader":"frostyon420","files":-1,"time":1374714338,"description":"Please Seed!!!!!!!!\n\n\n\n\nComplete name                            : D:TV ShowsAnimeNaruto ShippudenMoviesNaruto Shippuden the Movie The Will Of Fire (1920x1080)(5.1) [Phr0stY] .mkv\nFormat                                   : Matroska\nFormat version                           : Version 4 / Version 2\nFile size                                : 3.42 GiB\nDuration                                 : 1h 35mn\nOverall bit rate                         : 5 118 Kbps\nEncoded date                             : UTC 2013-07-24 22:58:05\nWriting application                      : mkvmerge v6.2.0 ('Promised Land') built on Apr 28 2013 12:22:01\nWriting library                          : libebml v1.3.0 + libmatroska v1.4.0\n\nVideo\nID                                       : 1\nFormat                                   : AVC\nFormat/Info                              : Advanced Video Codec\nFormat profile                           : &lt;a class=&quot;__cf_email__&quot; href=&quot;/cdn-cgi/l/email-protection&quot; data-cfemail=&quot;135b7a747b535f273d23&quot;&gt;[email&amp;#160;protected]&lt;/a&gt;&lt;script cf-hash='f9e31' type=&quot;text/javascript&quot;&gt;\n/* &lt;![CDATA[ */!function(){try{var t=&quot;currentScript&quot;in document?document.currentScript:function(){for(var t=document.getElementsByTagName(&quot;script&quot;),e=t.length;e--;)if(t[e].getAttribute(&quot;cf-hash&quot;))return t[e]}();if(t&amp;&amp;t.previousSibling){var e,r,n,i,c=t.previousSibling,a=c.getAttribute(&quot;data-cfemail&quot;);if(a){for(e=&quot;&quot;,r=parseInt(a.substr(0,2),16),n=2;a.length-n;n+=2)i=parseInt(a.substr(n,2),16)^r,e+=String.fromCharCode(i);e=document.createTextNode(e),c.parentNode.replaceChild(e,c)}}}catch(u){}}();/* ]]&gt; */&lt;/script&gt;\nFormat settings, CABAC                   : Yes\nFormat settings, ReFrames                : 4 frames\nCodec ID                                 : V_MPEG4/ISO/AVC\nDuration                                 : 1h 35mn\nBit rate                                 : 4 632 Kbps\nWidth                                    : 1 912 pixels\nHeight                                   : 1 036 pixels\nDisplay aspect ratio                     : 1.85:1\nFrame rate mode                          : Constant\nFrame rate                               : 23.976 fps\nColor space                              : YUV\nChroma subsampling                       : 4:2:0\nBit depth                                : 8 bits\nScan type                                : Progressive\nBits/(Pixel*Frame)                       : 0.098\nStream size                              : 3.10 GiB (91%)\nLanguage                                 : English\nDefault                                  : Yes\nForced                                   : No\nColor primaries                          : BT.709\nTransfer characteristics                 : BT.709\nMatrix coefficients                      : BT.709\n\nAudio\nID                                       : 2\nFormat                                   : AC-3\nFormat/Info                              : Audio Coding 3\nMode extension                           : CM (complete main)\nFormat settings, Endianness              : Big\nCodec ID                                 : A_AC3\nDuration                                 : 1h 35mn\nBit rate mode                            : Constant\nBit rate                                 : 384 Kbps\nChannel(s)                               : 6 channels\nChannel positions                        : Front: L C R, Side: L R, LFE\nSampling rate                            : 48.0 KHz\nBit depth                                : 16 bits\nCompression mode                         : Lossy\nStream size                              : 263 MiB (8%)\nLanguage                                 : English\nDefault                                  : Yes\nForced                                   : No\n\nMenu\n00:00:00.000                             : en:Chapter 1\n00:04:03.000                             : en:Chapter 2\n00:09:43.000                             : en:Chapter 3\n00:15:31.000                             : en:Chapter 4\n00:19:16.000                             : en:Chapter 5\n00:24:31.000                             : en:Chapter 6\n00:30:53.000                             : en:Chapter 7\n00:34:26.000                             : en:Chapter 8\n00:40:14.000                             : en:Chapter 9\n00:44:36.000                             : en:Chapter 10\n00:52:18.000                             : en:Chapter 11\n00:57:56.000                             : en:Chapter 12\n01:04:46.000                             : en:Chapter 13\n01:16:28.000                             : en:Chapter 14\n01:24:46.000                             : en:Chapter 15\n01:31:15.000                             : en:Chapter 16\n\n","torrent":{"xt":"urn:btih:174b0ead71b7847c57a7939687c72dd9227d4a6b","amp;dn":"Naruto+Shippuden+the+Movie+The+Will+Of+Fire+%281920x1080%29%285.1%29+%5BPh","amp;tr":["udp%3A%2F%2Ftracker.openbittorrent.com%3A80","udp%3A%2F%2Fopen.demonii.com%3A1337","udp%3A%2F%2Ftracker.coppersurfer.tk%3A6969","udp%3A%2F%2Fexodus.desync.com%3A6969"],"infoHash":"174b0ead71b7847c57a7939687c72dd9227d4a6b","infoHashBuffer":{"type":"Buffer","data":[23,75,14,173,113,183,132,124,87,167,147,150,135,199,45,217,34,125,74,107]},"announce":[],"urlList":[]}}